<?xml version="1.0" encoding="UTF-8" standalone="no"?>
<svg xmlns="http://www.w3.org/2000/svg"
     xmlns:xlink="http://www.w3.org/1999/xlink"
     width="1440pt" height="720pt" viewBox="0 0 1440 720">
<title>gl2ps_renderer figure</title>
<desc>
Creator: GL2PS 1.4.0, (C) 1999-2017 C. Geuzaine
For: Octave
CreationDate: Fri Apr  3 18:48:01 2020
</desc>
<defs>
</defs>
<polygon fill="#ffffff" points="0,0 1440,0 1440,720 0,720"/>
<g>
<polygon fill="#ffffff" points="0,720 1440,720 1440,0 0,0" shape-rendering="crispEdges"/>
<clipPath id="cp001440720">
  <polygon points="0,720 1440,720 1440,0 0,0"/>
</clipPath>
<g clip-path="url(#cp001440720)">
<polygon fill="#ffffff" shape-rendering="crispEdges" points="187.2,640.8 1080,640.8 1080,54"/>
<polygon fill="#ffffff" shape-rendering="crispEdges" points="187.2,640.8 1080,54 187.2,54"/>
<polyline fill="none" stroke="#cccccc" stroke-width="0.5" stroke-linecap="butt" stroke-linejoin="miter" stroke-opacity="0.15" stroke-dasharray="1,1,1,1,1,1,1,1,1,1" points="243,640.8 243,54"/>
<polyline fill="none" stroke="#cccccc" stroke-width="0.5" stroke-linecap="butt" stroke-linejoin="miter" stroke-opacity="0.15" stroke-dasharray="1,1,1,1,1,1,1,1,1,1" points="354.6,640.8 354.6,54"/>
<polyline fill="none" stroke="#cccccc" stroke-width="0.5" stroke-linecap="butt" stroke-linejoin="miter" stroke-opacity="0.15" stroke-dasharray="1,1,1,1,1,1,1,1,1,1" points="466.2,640.8 466.2,54"/>
<polyline fill="none" stroke="#cccccc" stroke-width="0.5" stroke-linecap="butt" stroke-linejoin="miter" stroke-opacity="0.15" stroke-dasharray="1,1,1,1,1,1,1,1,1,1" points="577.8,640.8 577.8,54"/>
<polyline fill="none" stroke="#cccccc" stroke-width="0.5" stroke-linecap="butt" stroke-linejoin="miter" stroke-opacity="0.15" stroke-dasharray="1,1,1,1,1,1,1,1,1,1" points="689.4,640.8 689.4,54"/>
<polyline fill="none" stroke="#cccccc" stroke-width="0.5" stroke-linecap="butt" stroke-linejoin="miter" stroke-opacity="0.15" stroke-dasharray="1,1,1,1,1,1,1,1,1,1" points="801,640.8 801,54"/>
<polyline fill="none" stroke="#cccccc" stroke-width="0.5" stroke-linecap="butt" stroke-linejoin="miter" stroke-opacity="0.15" stroke-dasharray="1,1,1,1,1,1,1,1,1,1" points="912.6,640.8 912.6,54"/>
<polyline fill="none" stroke="#cccccc" stroke-width="0.5" stroke-linecap="butt" stroke-linejoin="miter" stroke-opacity="0.15" stroke-dasharray="1,1,1,1,1,1,1,1,1,1" points="1024.2,640.8 1024.2,54"/>
<polyline fill="none" stroke="#262626" stroke-width="0.5" stroke-linecap="butt" stroke-linejoin="miter" points="243,640.8 243,649.725"/>
<polyline fill="none" stroke="#262626" stroke-width="0.5" stroke-linecap="butt" stroke-linejoin="miter" points="243,54 243,45.0752"/>
<polyline fill="none" stroke="#262626" stroke-width="0.5" stroke-linecap="butt" stroke-linejoin="miter" points="354.6,640.8 354.6,649.725"/>
<polyline fill="none" stroke="#262626" stroke-width="0.5" stroke-linecap="butt" stroke-linejoin="miter" points="354.6,54 354.6,45.0752"/>
<polyline fill="none" stroke="#262626" stroke-width="0.5" stroke-linecap="butt" stroke-linejoin="miter" points="466.2,640.8 466.2,649.725"/>
<polyline fill="none" stroke="#262626" stroke-width="0.5" stroke-linecap="butt" stroke-linejoin="miter" points="466.2,54 466.2,45.0752"/>
<polyline fill="none" stroke="#262626" stroke-width="0.5" stroke-linecap="butt" stroke-linejoin="miter" points="577.8,640.8 577.8,649.725"/>
<polyline fill="none" stroke="#262626" stroke-width="0.5" stroke-linecap="butt" stroke-linejoin="miter" points="577.8,54 577.8,45.0752"/>
<polyline fill="none" stroke="#262626" stroke-width="0.5" stroke-linecap="butt" stroke-linejoin="miter" points="689.4,640.8 689.4,649.725"/>
<polyline fill="none" stroke="#262626" stroke-width="0.5" stroke-linecap="butt" stroke-linejoin="miter" points="689.4,54 689.4,45.0752"/>
<polyline fill="none" stroke="#262626" stroke-width="0.5" stroke-linecap="butt" stroke-linejoin="miter" points="801,640.8 801,649.725"/>
<polyline fill="none" stroke="#262626" stroke-width="0.5" stroke-linecap="butt" stroke-linejoin="miter" points="801,54 801,45.0752"/>
<polyline fill="none" stroke="#262626" stroke-width="0.5" stroke-linecap="butt" stroke-linejoin="miter" points="912.6,640.8 912.6,649.725"/>
<polyline fill="none" stroke="#262626" stroke-width="0.5" stroke-linecap="butt" stroke-linejoin="miter" points="912.6,54 912.6,45.0752"/>
<polyline fill="none" stroke="#262626" stroke-width="0.5" stroke-linecap="butt" stroke-linejoin="miter" points="1024.2,640.8 1024.2,649.725"/>
<polyline fill="none" stroke="#262626" stroke-width="0.5" stroke-linecap="butt" stroke-linejoin="miter" points="1024.2,54 1024.2,45.0752"/>
<polyline fill="none" stroke="#cccccc" stroke-width="0.5" stroke-linecap="butt" stroke-linejoin="miter" stroke-opacity="0.15" stroke-dasharray="1,1,1,1,1,1,1,1,1,1" points="187.2,640.8 1080,640.8"/>
<polyline fill="none" stroke="#cccccc" stroke-width="0.5" stroke-linecap="butt" stroke-linejoin="miter" stroke-opacity="0.15" stroke-dasharray="1,1,1,1,1,1,1,1,1,1" points="187.2,556.972 1080,556.972"/>
<polyline fill="none" stroke="#cccccc" stroke-width="0.5" stroke-linecap="butt" stroke-linejoin="miter" stroke-opacity="0.15" stroke-dasharray="1,1,1,1,1,1,1,1,1,1" points="187.2,473.143 1080,473.143"/>
<polyline fill="none" stroke="#cccccc" stroke-width="0.5" stroke-linecap="butt" stroke-linejoin="miter" stroke-opacity="0.15" stroke-dasharray="1,1,1,1,1,1,1,1,1,1" points="187.2,389.314 1080,389.314"/>
<polyline fill="none" stroke="#cccccc" stroke-width="0.5" stroke-linecap="butt" stroke-linejoin="miter" stroke-opacity="0.15" stroke-dasharray="1,1,1,1,1,1,1,1,1,1" points="187.2,305.486 1080,305.486"/>
<polyline fill="none" stroke="#cccccc" stroke-width="0.5" stroke-linecap="butt" stroke-linejoin="miter" stroke-opacity="0.15" stroke-dasharray="1,1,1,1,1,1,1,1,1,1" points="187.2,221.657 1080,221.657"/>
<polyline fill="none" stroke="#cccccc" stroke-width="0.5" stroke-linecap="butt" stroke-linejoin="miter" stroke-opacity="0.15" stroke-dasharray="1,1,1,1,1,1,1,1,1,1" points="187.2,137.829 1080,137.829"/>
<polyline fill="none" stroke="#cccccc" stroke-width="0.5" stroke-linecap="butt" stroke-linejoin="miter" stroke-opacity="0.15" stroke-dasharray="1,1,1,1,1,1,1,1,1,1" points="187.2,54 1080,54"/>
<polyline fill="none" stroke="#262626" stroke-width="0.5" stroke-linecap="butt" stroke-linejoin="miter" points="187.2,640.8 178.274,640.8"/>
<polyline fill="none" stroke="#262626" stroke-width="0.5" stroke-linecap="butt" stroke-linejoin="miter" points="1080,640.8 1088.93,640.8"/>
<polyline fill="none" stroke="#262626" stroke-width="0.5" stroke-linecap="butt" stroke-linejoin="miter" points="187.2,556.972 178.274,556.972"/>
<polyline fill="none" stroke="#262626" stroke-width="0.5" stroke-linecap="butt" stroke-linejoin="miter" points="1080,556.972 1088.93,556.972"/>
<polyline fill="none" stroke="#262626" stroke-width="0.5" stroke-linecap="butt" stroke-linejoin="miter" points="187.2,473.143 178.274,473.143"/>
<polyline fill="none" stroke="#262626" stroke-width="0.5" stroke-linecap="butt" stroke-linejoin="miter" points="1080,473.143 1088.93,473.143"/>
<polyline fill="none" stroke="#262626" stroke-width="0.5" stroke-linecap="butt" stroke-linejoin="miter" points="187.2,389.314 178.274,389.314"/>
<polyline fill="none" stroke="#262626" stroke-width="0.5" stroke-linecap="butt" stroke-linejoin="miter" points="1080,389.314 1088.93,389.314"/>
<polyline fill="none" stroke="#262626" stroke-width="0.5" stroke-linecap="butt" stroke-linejoin="miter" points="187.2,305.486 178.274,305.486"/>
<polyline fill="none" stroke="#262626" stroke-width="0.5" stroke-linecap="butt" stroke-linejoin="miter" points="1080,305.486 1088.93,305.486"/>
<polyline fill="none" stroke="#262626" stroke-width="0.5" stroke-linecap="butt" stroke-linejoin="miter" points="187.2,221.657 178.274,221.657"/>
<polyline fill="none" stroke="#262626" stroke-width="0.5" stroke-linecap="butt" stroke-linejoin="miter" points="1080,221.657 1088.93,221.657"/>
<polyline fill="none" stroke="#262626" stroke-width="0.5" stroke-linecap="butt" stroke-linejoin="miter" points="187.2,137.829 178.274,137.829"/>
<polyline fill="none" stroke="#262626" stroke-width="0.5" stroke-linecap="butt" stroke-linejoin="miter" points="1080,137.829 1088.93,137.829"/>
<polyline fill="none" stroke="#262626" stroke-width="0.5" stroke-linecap="butt" stroke-linejoin="miter" points="187.2,54 178.274,54"/>
<polyline fill="none" stroke="#262626" stroke-width="0.5" stroke-linecap="butt" stroke-linejoin="miter" points="1080,54 1088.93,54"/>
<text xml:space="preserve" transform="translate(152.275,648.8) rotate(-0,21,-8)" font-family="FreeSans" font-weight="normal" font-style="normal" font-size="14"><tspan y="-2" fill="rgb(38,38,38)" x="0 5 13 ">-10</tspan></text>
<text xml:space="preserve" transform="translate(160.275,564.971) rotate(-0,13,-8)" font-family="FreeSans" font-weight="normal" font-style="normal" font-size="14"><tspan y="-2" fill="rgb(38,38,38)" x="0 5 ">-8</tspan></text>
<text xml:space="preserve" transform="translate(160.275,481.143) rotate(-0,13,-8)" font-family="FreeSans" font-weight="normal" font-style="normal" font-size="14"><tspan y="-2" fill="rgb(38,38,38)" x="0 5 ">-6</tspan></text>
<text xml:space="preserve" transform="translate(160.275,397.314) rotate(-0,13,-8)" font-family="FreeSans" font-weight="normal" font-style="normal" font-size="14"><tspan y="-2" fill="rgb(38,38,38)" x="0 5 ">-4</tspan></text>
<text xml:space="preserve" transform="translate(160.275,313.486) rotate(-0,13,-8)" font-family="FreeSans" font-weight="normal" font-style="normal" font-size="14"><tspan y="-2" fill="rgb(38,38,38)" x="0 5 ">-2</tspan></text>
<text xml:space="preserve" transform="translate(165.275,229.657) rotate(-0,8,-8)" font-family="FreeSans" font-weight="normal" font-style="normal" font-size="14"><tspan y="-2" fill="rgb(38,38,38)" x="0 ">0</tspan></text>
<text xml:space="preserve" transform="translate(165.275,145.829) rotate(-0,8,-8)" font-family="FreeSans" font-weight="normal" font-style="normal" font-size="14"><tspan y="-2" fill="rgb(38,38,38)" x="0 ">2</tspan></text>
<text xml:space="preserve" transform="translate(165.275,62) rotate(-0,8,-8)" font-family="FreeSans" font-weight="normal" font-style="normal" font-size="14"><tspan y="-2" fill="rgb(38,38,38)" x="0 ">4</tspan></text>
<polyline fill="none" stroke="#262626" stroke-width="0.5" stroke-linecap="square" stroke-linejoin="miter" stroke-dasharray="16,0" points="187.2,640.8 1080,640.8"/>
<polyline fill="none" stroke="#262626" stroke-width="0.5" stroke-linecap="square" stroke-linejoin="miter" stroke-dasharray="16,0" points="187.2,54 1080,54"/>
<polyline fill="none" stroke="#262626" stroke-width="0.5" stroke-linecap="square" stroke-linejoin="miter" stroke-dasharray="16,0" points="187.2,640.8 187.2,54"/>
<polyline fill="none" stroke="#262626" stroke-width="0.5" stroke-linecap="square" stroke-linejoin="miter" stroke-dasharray="16,0" points="1080,640.8 1080,54"/>
<text xml:space="preserve" transform="translate(82.2751,347.4) rotate(-90,66,0)" font-family="FreeSans" font-weight="normal" font-style="normal" font-size="14"><tspan y="-2" fill="rgb(38,38,38)" x="0 8 16 21 29 40 47 51 58 63 67 74 82 85 93 100 104 109 112 119 127 ">parameter value (log)</tspan></text>
<text xml:space="preserve" transform="translate(563.6,44) rotate(-0,70,0)" font-family="FreeSans" font-weight="bold" font-style="normal" font-size="14"><tspan y="-2" fill="rgb(0,0,0)" x="0 8 16 29 38 42 50 59 63 72 80 85 93 106 114 119 127 132 ">sampled parameters</tspan></text>
<polyline fill="none" stroke="#ffffff" stroke-width="0.5" stroke-linecap="butt" stroke-linejoin="round" points="243,117.957 354.6,118.503 466.2,591.214 577.8,316.103 689.4,318.417 801,157.376 912.6,355.19 1024.2,323.688"/>
<polyline fill="none" stroke="#f6f6f6" stroke-width="0.5" stroke-linecap="butt" stroke-linejoin="round" points="243,138.927 354.6,141.672 466.2,588.42 577.8,319.891 689.4,325.93 801,137.231 912.6,348.794 1024.2,293.406"/>
<polyline fill="none" stroke="#a9a9eb" stroke-width="0.5" stroke-linecap="butt" stroke-linejoin="round" points="243,155.663 354.6,157.225 466.2,532.975 577.8,238.368 689.4,278.644 801,187.7 912.6,345.617 1024.2,321.152"/>
<polyline fill="none" stroke="#a7a7eb" stroke-width="0.5" stroke-linecap="butt" stroke-linejoin="round" points="243,135.971 354.6,139.597 466.2,532.446 577.8,262.016 689.4,309.864 801,156.532 912.6,355.593 1024.2,342.233"/>
<polyline fill="none" stroke="#7e7eef" stroke-width="0.5" stroke-linecap="butt" stroke-linejoin="round" points="243,175.993 354.6,177.793 466.2,486.496 577.8,226.856 689.4,241.195 801,172.145 912.6,350.542 1024.2,297.575"/>
<polyline fill="none" stroke="#27274b" stroke-width="0.5" stroke-linecap="butt" stroke-linejoin="round" points="243,154.851 354.6,159.187 466.2,542.263 577.8,260.669 689.4,299.678 801,174.614 912.6,347.883 1024.2,314.675"/>
<polyline fill="none" stroke="#000000" stroke-width="0.5" stroke-linecap="butt" stroke-linejoin="round" points="243,165.872 354.6,167.677 466.2,503.552 577.8,261.961 689.4,267.067 801,162.329 912.6,353 1024.2,301.489"/>
<text xml:space="preserve" transform="translate(243,663.567) rotate(45,-0,-8)" font-family="FreeSans" font-weight="normal" font-style="normal" font-size="14"><tspan y="-2" fill="rgb(0,0,0)" x="0 5 ">r0</tspan></text>
<text xml:space="preserve" transform="translate(354.6,663.567) rotate(45,-0,-8)" font-family="FreeSans" font-weight="normal" font-style="normal" font-size="14"><tspan y="-2" fill="rgb(0,0,0)" x="0 5 13 21 29 32 39 ">r0_dist</tspan></text>
<text xml:space="preserve" transform="translate(466.2,663.567) rotate(45,-0,-8)" font-family="FreeSans" font-weight="normal" font-style="normal" font-size="14"><tspan y="-2" fill="rgb(0,0,0)" x="0 ">c</tspan></text>
<text xml:space="preserve" transform="translate(577.8,663.567) rotate(45,-0,-8)" font-family="FreeSans" font-weight="normal" font-style="normal" font-size="14"><tspan y="-2" fill="rgb(0,0,0)" x="0 ">l</tspan></text>
<text xml:space="preserve" transform="translate(689.4,663.567) rotate(45,-0,-8)" font-family="FreeSans" font-weight="normal" font-style="normal" font-size="14"><tspan y="-2" fill="rgb(0,0,0)" x="0 ">m</tspan></text>
<text xml:space="preserve" transform="translate(801,663.567) rotate(45,-0,-8)" font-family="FreeSans" font-weight="normal" font-style="normal" font-size="14"><tspan y="-2" fill="rgb(0,0,0)" x="0 ">g</tspan></text>
<text xml:space="preserve" transform="translate(912.6,663.567) rotate(45,-0,-8)" font-family="FreeSans" font-weight="normal" font-style="normal" font-size="14"><tspan y="-2" fill="rgb(0,0,0)" x="0 ">q</tspan></text>
<text xml:space="preserve" transform="translate(1024.2,663.567) rotate(45,-0,-8)" font-family="FreeSans" font-weight="normal" font-style="normal" font-size="14"><tspan y="-2" fill="rgb(0,0,0)" x="0 ">a</tspan></text>
<text xml:space="preserve" transform="translate(298.8,62) rotate(-0,-0,-8)" font-family="FreeSans" font-weight="normal" font-style="normal" font-size="14"><tspan y="-2" fill="rgb(76,76,76)" x="0 8 16 20 28 36 44 52 ">+0.99293</tspan></text>
<text xml:space="preserve" transform="translate(410.4,62) rotate(-0,-0,-8)" font-family="FreeSans" font-weight="normal" font-style="normal" font-size="14"><tspan y="-2" fill="rgb(76,76,76)" x="0 5 13 17 25 33 41 49 ">-0.65271</tspan></text>
<text xml:space="preserve" transform="translate(522,62) rotate(-0,-0,-8)" font-family="FreeSans" font-weight="normal" font-style="normal" font-size="14"><tspan y="-2" fill="rgb(76,76,76)" x="0 8 16 20 28 36 44 52 ">+0.74907</tspan></text>
<text xml:space="preserve" transform="translate(633.6,62) rotate(-0,-0,-8)" font-family="FreeSans" font-weight="normal" font-style="normal" font-size="14"><tspan y="-2" fill="rgb(76,76,76)" x="0 8 16 20 28 36 44 52 ">+0.48240</tspan></text>
<text xml:space="preserve" transform="translate(745.2,62) rotate(-0,-0,-8)" font-family="FreeSans" font-weight="normal" font-style="normal" font-size="14"><tspan y="-2" fill="rgb(76,76,76)" x="0 5 13 17 25 33 41 49 ">-0.27265</tspan></text>
<text xml:space="preserve" transform="translate(856.8,62) rotate(-0,-0,-8)" font-family="FreeSans" font-weight="normal" font-style="normal" font-size="14"><tspan y="-2" fill="rgb(76,76,76)" x="0 5 13 17 25 33 41 49 ">-0.36081</tspan></text>
<text xml:space="preserve" transform="translate(968.4,62) rotate(-0,-0,-8)" font-family="FreeSans" font-weight="normal" font-style="normal" font-size="14"><tspan y="-2" fill="rgb(76,76,76)" x="0 5 13 17 25 33 41 49 ">-0.01113</tspan></text>
<polyline fill="none" stroke="#663333" stroke-width="3" stroke-linecap="butt" stroke-linejoin="round" points="243,225.166 243,141.337"/>
<polyline fill="none" stroke="#663333" stroke-width="3" stroke-linecap="butt" stroke-linejoin="round" points="235.188,141.337 250.812,141.337"/>
<polyline fill="none" stroke="#663333" stroke-width="3" stroke-linecap="butt" stroke-linejoin="round" points="235.188,225.166 250.812,225.166"/>
<polyline fill="none" stroke="#663333" stroke-width="3" stroke-linecap="butt" stroke-linejoin="round" points="354.6,225.166 354.6,141.337"/>
<polyline fill="none" stroke="#663333" stroke-width="3" stroke-linecap="butt" stroke-linejoin="round" points="346.788,141.337 362.412,141.337"/>
<polyline fill="none" stroke="#663333" stroke-width="3" stroke-linecap="butt" stroke-linejoin="round" points="346.788,225.166 362.412,225.166"/>
<polyline fill="none" stroke="#663333" stroke-width="3" stroke-linecap="butt" stroke-linejoin="round" points="466.2,478.005 466.2,394.176"/>
<polyline fill="none" stroke="#663333" stroke-width="3" stroke-linecap="butt" stroke-linejoin="round" points="458.388,394.176 474.012,394.176"/>
<polyline fill="none" stroke="#663333" stroke-width="3" stroke-linecap="butt" stroke-linejoin="round" points="458.388,478.005 474.012,478.005"/>
<polyline fill="none" stroke="#663333" stroke-width="3" stroke-linecap="butt" stroke-linejoin="round" points="577.8,360.083 577.8,276.254"/>
<polyline fill="none" stroke="#663333" stroke-width="3" stroke-linecap="butt" stroke-linejoin="round" points="569.988,276.254 585.612,276.254"/>
<polyline fill="none" stroke="#663333" stroke-width="3" stroke-linecap="butt" stroke-linejoin="round" points="569.988,360.083 585.612,360.083"/>
<polyline fill="none" stroke="#663333" stroke-width="3" stroke-linecap="butt" stroke-linejoin="round" points="689.4,360.083 689.4,276.254"/>
<polyline fill="none" stroke="#663333" stroke-width="3" stroke-linecap="butt" stroke-linejoin="round" points="681.588,276.254 697.212,276.254"/>
<polyline fill="none" stroke="#663333" stroke-width="3" stroke-linecap="butt" stroke-linejoin="round" points="681.588,360.083 697.212,360.083"/>
<polyline fill="none" stroke="#663333" stroke-width="3" stroke-linecap="butt" stroke-linejoin="round" points="801,154.222 801,96.0703"/>
<polyline fill="none" stroke="#663333" stroke-width="3" stroke-linecap="butt" stroke-linejoin="round" points="793.188,96.0703 808.812,96.0703"/>
<polyline fill="none" stroke="#663333" stroke-width="3" stroke-linecap="butt" stroke-linejoin="round" points="793.188,154.222 808.812,154.222"/>
<polyline fill="none" stroke="#663333" stroke-width="3" stroke-linecap="butt" stroke-linejoin="round" points="912.6,408.441 912.6,324.612"/>
<polyline fill="none" stroke="#663333" stroke-width="3" stroke-linecap="butt" stroke-linejoin="round" points="904.788,324.612 920.412,324.612"/>
<polyline fill="none" stroke="#663333" stroke-width="3" stroke-linecap="butt" stroke-linejoin="round" points="904.788,408.441 920.412,408.441"/>
<polyline fill="none" stroke="#663333" stroke-width="3" stroke-linecap="butt" stroke-linejoin="round" points="1024.2,335.025 1024.2,251.196"/>
<polyline fill="none" stroke="#663333" stroke-width="3" stroke-linecap="butt" stroke-linejoin="round" points="1016.39,251.196 1032.01,251.196"/>
<polyline fill="none" stroke="#663333" stroke-width="3" stroke-linecap="butt" stroke-linejoin="round" points="1016.39,335.025 1032.01,335.025"/>
<polyline fill="none" stroke="#663333" stroke-width="3" stroke-linecap="square" stroke-linejoin="miter" points="240,183.251 246,183.251"/>
<polyline fill="none" stroke="#663333" stroke-width="3" stroke-linecap="square" stroke-linejoin="miter" points="243,180.251 243,186.251"/>
<polyline fill="none" stroke="#663333" stroke-width="3" stroke-linecap="square" stroke-linejoin="miter" points="351.6,183.251 357.6,183.251"/>
<polyline fill="none" stroke="#663333" stroke-width="3" stroke-linecap="square" stroke-linejoin="miter" points="354.6,180.251 354.6,186.251"/>
<polyline fill="none" stroke="#663333" stroke-width="3" stroke-linecap="square" stroke-linejoin="miter" points="463.2,436.09 469.2,436.09"/>
<polyline fill="none" stroke="#663333" stroke-width="3" stroke-linecap="square" stroke-linejoin="miter" points="466.2,433.09 466.2,439.09"/>
<polyline fill="none" stroke="#663333" stroke-width="3" stroke-linecap="square" stroke-linejoin="miter" points="574.8,318.168 580.8,318.168"/>
<polyline fill="none" stroke="#663333" stroke-width="3" stroke-linecap="square" stroke-linejoin="miter" points="577.8,315.168 577.8,321.168"/>
<polyline fill="none" stroke="#663333" stroke-width="3" stroke-linecap="square" stroke-linejoin="miter" points="686.4,318.168 692.4,318.168"/>
<polyline fill="none" stroke="#663333" stroke-width="3" stroke-linecap="square" stroke-linejoin="miter" points="689.4,315.168 689.4,321.168"/>
<polyline fill="none" stroke="#663333" stroke-width="3" stroke-linecap="square" stroke-linejoin="miter" points="798,125.146 804,125.146"/>
<polyline fill="none" stroke="#663333" stroke-width="3" stroke-linecap="square" stroke-linejoin="miter" points="801,122.146 801,128.146"/>
<polyline fill="none" stroke="#663333" stroke-width="3" stroke-linecap="square" stroke-linejoin="miter" points="909.6,366.527 915.6,366.527"/>
<polyline fill="none" stroke="#663333" stroke-width="3" stroke-linecap="square" stroke-linejoin="miter" points="912.6,363.527 912.6,369.527"/>
<polyline fill="none" stroke="#663333" stroke-width="3" stroke-linecap="square" stroke-linejoin="miter" points="1021.2,293.11 1027.2,293.11"/>
<polyline fill="none" stroke="#663333" stroke-width="3" stroke-linecap="square" stroke-linejoin="miter" points="1024.2,290.11 1024.2,296.11"/>
<polyline fill="none" stroke="#cce5e5" stroke-width="0.5" stroke-linecap="butt" stroke-linejoin="round" points="243,225.166 243,141.337"/>
<polyline fill="none" stroke="#cce5e5" stroke-width="0.5" stroke-linecap="butt" stroke-linejoin="round" points="235.188,141.337 250.812,141.337"/>
<polyline fill="none" stroke="#cce5e5" stroke-width="0.5" stroke-linecap="butt" stroke-linejoin="round" points="235.188,225.166 250.812,225.166"/>
<polyline fill="none" stroke="#cce5e5" stroke-width="0.5" stroke-linecap="butt" stroke-linejoin="round" points="354.6,225.166 354.6,141.337"/>
<polyline fill="none" stroke="#cce5e5" stroke-width="0.5" stroke-linecap="butt" stroke-linejoin="round" points="346.788,141.337 362.412,141.337"/>
<polyline fill="none" stroke="#cce5e5" stroke-width="0.5" stroke-linecap="butt" stroke-linejoin="round" points="346.788,225.166 362.412,225.166"/>
<polyline fill="none" stroke="#cce5e5" stroke-width="0.5" stroke-linecap="butt" stroke-linejoin="round" points="466.2,478.005 466.2,394.176"/>
<polyline fill="none" stroke="#cce5e5" stroke-width="0.5" stroke-linecap="butt" stroke-linejoin="round" points="458.388,394.176 474.012,394.176"/>
<polyline fill="none" stroke="#cce5e5" stroke-width="0.5" stroke-linecap="butt" stroke-linejoin="round" points="458.388,478.005 474.012,478.005"/>
<polyline fill="none" stroke="#cce5e5" stroke-width="0.5" stroke-linecap="butt" stroke-linejoin="round" points="577.8,360.083 577.8,276.254"/>
<polyline fill="none" stroke="#cce5e5" stroke-width="0.5" stroke-linecap="butt" stroke-linejoin="round" points="569.988,276.254 585.612,276.254"/>
<polyline fill="none" stroke="#cce5e5" stroke-width="0.5" stroke-linecap="butt" stroke-linejoin="round" points="569.988,360.083 585.612,360.083"/>
<polyline fill="none" stroke="#cce5e5" stroke-width="0.5" stroke-linecap="butt" stroke-linejoin="round" points="689.4,360.083 689.4,276.254"/>
<polyline fill="none" stroke="#cce5e5" stroke-width="0.5" stroke-linecap="butt" stroke-linejoin="round" points="681.588,276.254 697.212,276.254"/>
<polyline fill="none" stroke="#cce5e5" stroke-width="0.5" stroke-linecap="butt" stroke-linejoin="round" points="681.588,360.083 697.212,360.083"/>
<polyline fill="none" stroke="#cce5e5" stroke-width="0.5" stroke-linecap="butt" stroke-linejoin="round" points="801,154.222 801,96.0703"/>
<polyline fill="none" stroke="#cce5e5" stroke-width="0.5" stroke-linecap="butt" stroke-linejoin="round" points="793.188,96.0703 808.812,96.0703"/>
<polyline fill="none" stroke="#cce5e5" stroke-width="0.5" stroke-linecap="butt" stroke-linejoin="round" points="793.188,154.222 808.812,154.222"/>
<polyline fill="none" stroke="#cce5e5" stroke-width="0.5" stroke-linecap="butt" stroke-linejoin="round" points="912.6,408.441 912.6,324.612"/>
<polyline fill="none" stroke="#cce5e5" stroke-width="0.5" stroke-linecap="butt" stroke-linejoin="round" points="904.788,324.612 920.412,324.612"/>
<polyline fill="none" stroke="#cce5e5" stroke-width="0.5" stroke-linecap="butt" stroke-linejoin="round" points="904.788,408.441 920.412,408.441"/>
<polyline fill="none" stroke="#cce5e5" stroke-width="0.5" stroke-linecap="butt" stroke-linejoin="round" points="1024.2,335.025 1024.2,251.196"/>
<polyline fill="none" stroke="#cce5e5" stroke-width="0.5" stroke-linecap="butt" stroke-linejoin="round" points="1016.39,251.196 1032.01,251.196"/>
<polyline fill="none" stroke="#cce5e5" stroke-width="0.5" stroke-linecap="butt" stroke-linejoin="round" points="1016.39,335.025 1032.01,335.025"/>
<polyline fill="none" stroke="#cce5e5" stroke-width="0.5" stroke-linecap="square" stroke-linejoin="miter" points="240,183.251 246,183.251"/>
<polyline fill="none" stroke="#cce5e5" stroke-width="0.5" stroke-linecap="square" stroke-linejoin="miter" points="243,180.251 243,186.251"/>
<polyline fill="none" stroke="#cce5e5" stroke-width="0.5" stroke-linecap="square" stroke-linejoin="miter" points="351.6,183.251 357.6,183.251"/>
<polyline fill="none" stroke="#cce5e5" stroke-width="0.5" stroke-linecap="square" stroke-linejoin="miter" points="354.6,180.251 354.6,186.251"/>
<polyline fill="none" stroke="#cce5e5" stroke-width="0.5" stroke-linecap="square" stroke-linejoin="miter" points="463.2,436.09 469.2,436.09"/>
<polyline fill="none" stroke="#cce5e5" stroke-width="0.5" stroke-linecap="square" stroke-linejoin="miter" points="466.2,433.09 466.2,439.09"/>
<polyline fill="none" stroke="#cce5e5" stroke-width="0.5" stroke-linecap="square" stroke-linejoin="miter" points="574.8,318.168 580.8,318.168"/>
<polyline fill="none" stroke="#cce5e5" stroke-width="0.5" stroke-linecap="square" stroke-linejoin="miter" points="577.8,315.168 577.8,321.168"/>
<polyline fill="none" stroke="#cce5e5" stroke-width="0.5" stroke-linecap="square" stroke-linejoin="miter" points="686.4,318.168 692.4,318.168"/>
<polyline fill="none" stroke="#cce5e5" stroke-width="0.5" stroke-linecap="square" stroke-linejoin="miter" points="689.4,315.168 689.4,321.168"/>
<polyline fill="none" stroke="#cce5e5" stroke-width="0.5" stroke-linecap="square" stroke-linejoin="miter" points="798,125.146 804,125.146"/>
<polyline fill="none" stroke="#cce5e5" stroke-width="0.5" stroke-linecap="square" stroke-linejoin="miter" points="801,122.146 801,128.146"/>
<polyline fill="none" stroke="#cce5e5" stroke-width="0.5" stroke-linecap="square" stroke-linejoin="miter" points="909.6,366.527 915.6,366.527"/>
<polyline fill="none" stroke="#cce5e5" stroke-width="0.5" stroke-linecap="square" stroke-linejoin="miter" points="912.6,363.527 912.6,369.527"/>
<polyline fill="none" stroke="#cce5e5" stroke-width="0.5" stroke-linecap="square" stroke-linejoin="miter" points="1021.2,293.11 1027.2,293.11"/>
<polyline fill="none" stroke="#cce5e5" stroke-width="0.5" stroke-linecap="square" stroke-linejoin="miter" points="1024.2,290.11 1024.2,296.11"/>
</g>
<clipPath id="cp001440720">
  <polygon points="0,720 1440,720 1440,0 0,0"/>
</clipPath>
<g clip-path="url(#cp001440720)">
<polygon fill="#ffffff" shape-rendering="crispEdges" points="1258.56,640.789 1191.6,640.789 1191.6,53.9976"/>
<polygon fill="#ffffff" shape-rendering="crispEdges" points="1258.56,640.789 1191.6,53.9976 1258.56,53.9976"/>
<text xml:space="preserve" transform="translate(1180.58,44) rotate(-0,44.5,0)" font-family="FreeSans" font-weight="bold" font-style="normal" font-size="14"><tspan y="-2" fill="rgb(0,0,0)" x="0 4 13 22 27 36 45 53 58 66 71 75 84 ">log-posterior</tspan></text>
<polyline fill="none" stroke="#262626" stroke-width="0.5" stroke-linecap="butt" stroke-linejoin="miter" points="1258.56,587 1252.7,587"/>
<polyline fill="none" stroke="#262626" stroke-width="0.5" stroke-linecap="butt" stroke-linejoin="miter" points="1191.6,587 1197.46,587"/>
<polyline fill="none" stroke="#262626" stroke-width="0.5" stroke-linecap="butt" stroke-linejoin="miter" points="1258.56,473.786 1252.7,473.786"/>
<polyline fill="none" stroke="#262626" stroke-width="0.5" stroke-linecap="butt" stroke-linejoin="miter" points="1191.6,473.786 1197.46,473.786"/>
<polyline fill="none" stroke="#262626" stroke-width="0.5" stroke-linecap="butt" stroke-linejoin="miter" points="1258.56,360.56 1252.7,360.56"/>
<polyline fill="none" stroke="#262626" stroke-width="0.5" stroke-linecap="butt" stroke-linejoin="miter" points="1191.6,360.56 1197.46,360.56"/>
<polyline fill="none" stroke="#262626" stroke-width="0.5" stroke-linecap="butt" stroke-linejoin="miter" points="1258.56,247.335 1252.7,247.335"/>
<polyline fill="none" stroke="#262626" stroke-width="0.5" stroke-linecap="butt" stroke-linejoin="miter" points="1191.6,247.335 1197.46,247.335"/>
<polyline fill="none" stroke="#262626" stroke-width="0.5" stroke-linecap="butt" stroke-linejoin="miter" points="1258.56,134.121 1252.7,134.121"/>
<polyline fill="none" stroke="#262626" stroke-width="0.5" stroke-linecap="butt" stroke-linejoin="miter" points="1191.6,134.121 1197.46,134.121"/>
<text xml:space="preserve" transform="translate(1263.56,595.006) rotate(-0,-0,-8)" font-family="FreeSans" font-weight="normal" font-style="normal" font-size="14"><tspan y="-2" fill="rgb(38,38,38)" x="0 8 16 ">852</tspan></text>
<text xml:space="preserve" transform="translate(1263.56,481.784) rotate(-0,-0,-8)" font-family="FreeSans" font-weight="normal" font-style="normal" font-size="14"><tspan y="-2" fill="rgb(38,38,38)" x="0 8 16 ">853</tspan></text>
<text xml:space="preserve" transform="translate(1263.56,368.563) rotate(-0,-0,-8)" font-family="FreeSans" font-weight="normal" font-style="normal" font-size="14"><tspan y="-2" fill="rgb(38,38,38)" x="0 8 16 ">854</tspan></text>
<text xml:space="preserve" transform="translate(1263.56,255.342) rotate(-0,-0,-8)" font-family="FreeSans" font-weight="normal" font-style="normal" font-size="14"><tspan y="-2" fill="rgb(38,38,38)" x="0 8 16 ">855</tspan></text>
<text xml:space="preserve" transform="translate(1263.56,142.12) rotate(-0,-0,-8)" font-family="FreeSans" font-weight="normal" font-style="normal" font-size="14"><tspan y="-2" fill="rgb(38,38,38)" x="0 8 16 ">856</tspan></text>
<polyline fill="none" stroke="#262626" stroke-width="0.5" stroke-linecap="square" stroke-linejoin="miter" stroke-dasharray="16,0" points="1258.56,640.789 1191.6,640.789"/>
<polyline fill="none" stroke="#262626" stroke-width="0.5" stroke-linecap="square" stroke-linejoin="miter" stroke-dasharray="16,0" points="1258.56,53.9976 1191.6,53.9976"/>
<polyline fill="none" stroke="#262626" stroke-width="0.5" stroke-linecap="square" stroke-linejoin="miter" stroke-dasharray="16,0" points="1258.56,640.789 1258.56,53.9976"/>
<polyline fill="none" stroke="#262626" stroke-width="0.5" stroke-linecap="square" stroke-linejoin="miter" stroke-dasharray="16,0" points="1191.6,640.789 1191.6,53.9976"/>
</g>
</g>
</svg>
